<svg xmlns="http://www.w3.org/2000/svg" width="31" height="24" viewBox="0 0 31 24">
    <g fill="none" fill-rule="evenodd">
        <g>
            <g>
                <g>
                    <g>
                        <g fill="#455A64" fill-rule="nonzero">
                            <path d="M.686 7.977c-.368 0-.666-.296-.666-.663 0-.177.07-.347.195-.472L6.863.194c.264-.255.684-.248.94.016.248.258.248.666 0 .924L1.155 7.782c-.125.125-.293.195-.47.195zM19.299 7.977c-.176 0-.346-.07-.47-.194L12.18 1.135c-.255-.264-.248-.684.016-.94.258-.248.666-.248.924 0l6.647 6.648c.26.26.259.681-.001.94-.124.124-.293.194-.468.194z" transform="translate(-35.000000, -429.000000) translate(29.000000, 389.000000) translate(1.000000, 36.004831) translate(5.000000, 4.000000) translate(5.297352, 2.679837)"/>
                        </g>
                        <path fill="#69D6C8" fill-rule="nonzero" d="M3.324 9.328h23.931c1.836 0 3.324 1.488 3.324 3.323v7.978c0 1.835-1.488 3.323-3.324 3.323H3.324C1.488 23.952 0 22.464 0 20.63V12.65c0-1.835 1.488-3.323 3.324-3.323z" transform="translate(-35.000000, -429.000000) translate(29.000000, 389.000000) translate(1.000000, 36.004831) translate(5.000000, 4.000000)"/>
                        <text fill="#FFF" font-size="12" font-weight="bold" transform="translate(-35.000000, -429.000000) translate(29.000000, 389.000000) translate(1.000000, 36.004831) translate(5.000000, 4.000000)">
                            <tspan x="5" y="20">free</tspan>
                        </text>
                        <path fill="#607D8B" fill-rule="nonzero" d="M15.29 6.668c-1.836 0-3.324-1.488-3.324-3.323 0-1.836 1.488-3.324 3.324-3.324 1.835 0 3.323 1.488 3.323 3.324 0 1.835-1.488 3.323-3.323 3.323z" transform="translate(-35.000000, -429.000000) translate(29.000000, 389.000000) translate(1.000000, 36.004831) translate(5.000000, 4.000000)"/>
                    </g>
                </g>
            </g>
        </g>
    </g>
</svg>
