<svg xmlns="http://www.w3.org/2000/svg" viewBox="0 0 15 13" fill="none">
    <path d="M9.256 6.26c2.407 0 4.093 1.194 5.441 3.12.059.084.118.167.175.254.3.453.584.917.887 1.366.312.464.645.912 1.039 1.318.693.712 1.483 1.005 2.35 1.088l-.164-.199c-.317-.375-.37-.904 0-1.273.169-.168.42-.263.668-.263.23 0 .457.082.61.263.489.579.955 1.175 1.444 1.754.318.319.44.849.046 1.274l-1.626 1.755c-.185.2-.396.283-.6.283-.674 0-1.283-.903-.678-1.556l.211-.228c-.887-.063-1.74-.287-2.53-.798-.728-.472-1.315-1.11-1.832-1.798-.182-.242-.355-.49-.523-.74-.195-.29-.38-.585-.568-.88-.396-.621-.8-1.236-1.312-1.773-.833-.873-1.895-1.167-3.05-1.167-.123 0-.247.004-.372.01l-.056.002c-1.109 0-1.085-1.744.056-1.802.13-.006.258-.01.384-.01zm4.067 5.178c.147.232.3.471.457.705.19.285.4.58.626.874-1.373 1.787-3.096 2.836-5.534 2.713-1.16-.059-1.165-1.86 0-1.8 1.297.065 2.5-.191 3.422-1.157.391-.41.72-.866 1.029-1.335zm5.525-4.882c-.788-.852.486-2.128 1.278-1.273l1.626 1.755c.394.425.272.955-.046 1.274-.489.578-.956 1.175-1.444 1.754-.318.376-.952.324-1.278 0-.37-.37-.317-.898 0-1.273l.164-.199c-.867.083-1.657.376-2.35 1.089-.275.282-.519.586-.748.9-.124-.189-.248-.382-.373-.578-.133-.207-.27-.422-.41-.632-.086-.131-.175-.257-.264-.382.442-.537.938-1.027 1.527-1.409.788-.51 1.643-.735 2.53-.799z" transform="translate(-132.000000, -892.000000) translate(28.000000, 846.000000) translate(2.000000, 37.000000) translate(94.277778, 4.516908)" fill="#000"/>
</svg>
